REM MD5 23a207c3c92697a97ffb0bd197f8fe27
FILE "Euro Demo 23 (France).bin" BINARY
  TRACK 01 MODE2/2352
    INDEX 01 00:00:00
  TRACK 02 AUDIO
    INDEX 00 46:47:42
    INDEX 01 46:49:42
  TRACK 03 AUDIO
    INDEX 00 48:36:26
    INDEX 01 48:38:26
  TRACK 04 AUDIO
    INDEX 00 52:05:09
    INDEX 01 52:07:09
  TRACK 05 AUDIO
    INDEX 00 53:53:68
    INDEX 01 53:55:68
  TRACK 06 AUDIO
    INDEX 00 55:51:59
    INDEX 01 55:53:59
REM LEADOUT 58:55:15
